<?xml version="1.0" encoding="utf-8"?>
<!-- Generator: Adobe Illustrator 26.0.0, SVG Export Plug-In . SVG Version: 6.00 Build 0)  -->
<svg version="1.1" id="Camada_1" xmlns="http://www.w3.org/2000/svg" xmlns:xlink="http://www.w3.org/1999/xlink" x="0px" y="0px"
	 viewBox="0 0 200 80" style="enable-background:new 0 0 200 80;" xml:space="preserve">
<style type="text/css">
	.st0{stroke:#030304;stroke-miterlimit:10;}
	.st1{font-family:'GreatVibes-Regular';}
	.st2{font-size:26.8965px;}
</style>
<g>
	<path class="st0" d="M93.2,34.9"/>
	<path d="M75.9,70.9c0,0,9.3-9.2,12.9-24.4c2.3-9.7,15-17.5,21.4-19.7c0.1,0,3.1-1.1,5.9-3.6s11.7-5.3,21-3.9c0,0-11.7-0.6-15.4,6.3
		c0,0-3.6,12.7-12.7,14.4c-9.1,1.7-14.7,8.9-17.9,14.2C88,59.5,83.9,64.2,75.9,70.9z"/>
	<path d="M106.9,45.6c0,0-2.3-13.4-16.2-19c-7.5-3-10.1-12.3-10.4-14.5c0,0-5.9,13.6,9.8,19.2C97.3,33.9,101.8,37.2,106.9,45.6z"/>
	<path d="M107.6,43.6c0,0-0.4-18.3-11.1-22.5c-3.4-1.2-15.3-9.4-16.6-16.5c0,0-0.1,12.9,10.5,20.3c0,0,2.9,1.6,4.7,2.5
		C97,28.4,104.2,33.8,107.6,43.6z"/>
	<path d="M106.5,47.2c0,0-4.3-9.9-12.4-12.7c-7.7-2.6-9.1-4.1-10.3-5.3c0,0,0.2,6.2,8.5,9.2C100.5,41.4,102.1,41.7,106.5,47.2"/>
	<path d="M74.8,68.9c0,0,14.8-6,21.8-11.1c7-5.1,16.4-11.3,18.3-26.9c0,0,0.1-3.6-0.2-5.1c-0.3-1.4-0.5-6.2,6-6.9
		c6.5-0.7,14.8,0,16.5,0.4c0,0-10.3-1.7-13.3-3.6s-8.8-2.8-12.9,1.4c-4,4.2-7.3,10.4-8.5,18.2c-1.2,7.9-1.4,9.7-8.2,18
		C87.6,61.8,77.4,68.4,74.8,68.9z"/>
	<text transform="matrix(1 0 0 1 28.7164 62.7606)" class="st1 st2">Sam</text>
	<text transform="matrix(1 0 0 1 107.6373 62.7606)" class="st1 st2">Host</text>
</g>
</svg>
