<?xml version="1.0" encoding="utf-8"?>
<!-- Generator: Adobe Illustrator 26.0.0, SVG Export Plug-In . SVG Version: 6.00 Build 0)  -->
<svg version="1.1" id="Camada_2" xmlns="http://www.w3.org/2000/svg" xmlns:xlink="http://www.w3.org/1999/xlink" x="0px" y="0px"
	 viewBox="0 0 512 512" style="enable-background:new 0 0 512 512;" xml:space="preserve">
<style type="text/css">
	.st0{fill:none;stroke:#020202;stroke-miterlimit:10;enable-background:new    ;}
	.st1{fill:#F3AE1A;stroke:#F3AE1A;stroke-miterlimit:10;enable-background:new    ;}
	.st2{fill:#F3AE1A;enable-background:new    ;}
	.st3{fill:#171027;enable-background:new    ;}
	.st4{fill:#171027;}
	.st5{font-family:'GreatVibes-Regular';}
	.st6{font-size:95.166px;}
</style>
<path class="st0" d="M235.7,227.9"/>
<path class="st1" d="M174.4,355.5c0,0,33-32.5,45.5-86.4c8.3-34.4,53-61.9,75.8-69.6c0.2,0,10.9-3.9,21-12.6
	c10.1-8.7,41.3-18.9,74.2-13.9c0,0-41.3-2.2-54.4,22.2c0,0-12.7,44.8-44.9,50.9c-32.2,6.1-52.1,31.4-63.2,50.3
	C217.3,315.2,202.8,331.7,174.4,355.5z"/>
<path class="st2" d="M284.1,266c0,0-8-47.3-57.2-67.4c-26.7-10.7-35.8-43.5-36.7-51.2c0,0-20.9,48.1,34.8,68
	C250.2,224.6,265.9,236.2,284.1,266z"/>
<path class="st3" d="M286.6,258.8c0,0-1.3-64.9-39.2-79.7c-12.1-4.3-54.3-33.2-58.8-58.5c0,0-0.4,45.5,37.3,72c0,0,10.2,5.8,16.6,9
	C248.9,204.9,274.5,224.3,286.6,258.8z"/>
<path class="st2" d="M282.6,271.7c0,0-15.1-35.1-43.9-44.8c-27.1-9.1-32.2-14.5-36.6-18.7c0,0,0.6,21.9,30,32.4
	c29.4,10.5,34.8,11.5,50.5,31.2"/>
<path class="st3" d="M170.6,348.5c0,0,52.4-21.2,77.2-39.4c24.8-18.2,57.9-40.1,64.7-95.1c0,0,0.4-12.9-0.7-17.9
	c-1.2-5-1.9-22.1,21.2-24.4c23.1-2.4,52.3,0,58.3,1.3c0,0-36.3-5.9-47-12.7c-10.7-6.8-31.2-9.8-45.5,5c-14.3,14.8-26,36.8-30.2,64.5
	c-4.2,27.8-5.1,34.2-28.9,63.7C215.9,323.1,179.5,346.7,170.6,348.5z"/>
<text transform="matrix(1 0 0 1 7.3975 326.6388)" class="st4 st5 st6">Sam</text>
<text transform="matrix(1 0 0 1 286.6377 326.6388)" class="st4 st5 st6">Host</text>
</svg>
