<svg id="Camada_2" data-name="Camada 2" xmlns="http://www.w3.org/2000/svg" viewBox="0 0 498.9 262.09"><defs><style>.cls-1{fill:none;stroke:#020202;}.cls-1,.cls-2{stroke-miterlimit:10;}.cls-2,.cls-3,.cls-4{fill:#fff;}.cls-2{stroke:#fff;}.cls-4{isolation:isolate;font-size:95.17px;font-family:GreatVibes-Regular, Great Vibes;}</style></defs><path class="cls-1" d="M235.7,227.9" transform="translate(-7.09 -120.6)"/><path class="cls-2" d="M174.4,355.5s33-32.5,45.5-86.4c8.3-34.4,53-61.9,75.8-69.6a71.76,71.76,0,0,0,21-12.6c10.1-8.7,41.3-18.9,74.2-13.9,0,0-41.3-2.2-54.4,22.2,0,0-12.7,44.8-44.9,50.9s-52.1,31.4-63.2,50.3S202.8,331.7,174.4,355.5Z" transform="translate(-7.09 -120.6)"/><path class="cls-3" d="M284.1,266s-8-47.3-57.2-67.4c-26.7-10.7-35.8-43.5-36.7-51.2,0,0-20.9,48.1,34.8,68C250.2,224.6,265.9,236.2,284.1,266Z" transform="translate(-7.09 -120.6)"/><path class="cls-3" d="M286.6,258.8s-1.3-64.9-39.2-79.7c-12.1-4.3-54.3-33.2-58.8-58.5,0,0-.4,45.5,37.3,72,0,0,10.2,5.8,16.6,9S274.5,224.3,286.6,258.8Z" transform="translate(-7.09 -120.6)"/><path class="cls-3" d="M282.6,271.7s-15.1-35.1-43.9-44.8c-27.1-9.1-32.2-14.5-36.6-18.7,0,0,.6,21.9,30,32.4s34.8,11.5,50.5,31.2" transform="translate(-7.09 -120.6)"/><path class="cls-3" d="M170.6,348.5s52.4-21.2,77.2-39.4S305.7,269,312.5,214c0,0,.4-12.9-.7-17.9S309.9,174,333,171.7s52.3,0,58.3,1.3c0,0-36.3-5.9-47-12.7s-31.2-9.8-45.5,5-26,36.8-30.2,64.5-5.1,34.2-28.9,63.7S179.5,346.7,170.6,348.5Z" transform="translate(-7.09 -120.6)"/><text class="cls-4" transform="translate(0.31 206.04)">Sam</text><text class="cls-4" transform="translate(279.55 206.04)">Host</text></svg>