<?xml version="1.0" encoding="utf-8"?>
<!-- Generator: Adobe Illustrator 26.0.0, SVG Export Plug-In . SVG Version: 6.00 Build 0)  -->
<svg version="1.1" id="Camada_1" xmlns="http://www.w3.org/2000/svg" xmlns:xlink="http://www.w3.org/1999/xlink" x="0px" y="0px"
	 viewBox="0 0 900 440" style="enable-background:new 0 0 900 440;" xml:space="preserve">
<style type="text/css">
	.st0{fill:#020203;stroke:#030405;stroke-miterlimit:10;}
	.st1{fill:#F3AE1A;}
	.st2{fill:#171226;}
	.st3{font-family:'GreatVibes-Regular';}
	.st4{font-size:155.7876px;}
</style>
<g>
	<g>
		<path class="st0" d="M406.6,186.1"/>
		<path class="st1" d="M306.4,394.6c0,0,53.9-53.3,74.7-141.3c13.3-56.2,86.9-101.4,124-114.1c0.6,0,18-6.4,34.2-20.9
			s67.8-30.7,121.6-22.6c0,0-67.8-3.5-89.2,36.5c0,0-20.9,73.6-73.6,83.4c-52.7,9.8-85.1,51.5-103.7,82.2
			C376.5,328.6,352.8,355.8,306.4,394.6z"/>
		<path class="st1" d="M486,248.1c0,0-13.3-77.6-93.8-110.1c-43.4-17.4-58.5-71.2-60.2-84c0,0-34.2,78.8,56.8,111.2
			C430.4,180.3,456.5,199.4,486,248.1z"/>
		<path class="st2" d="M490.1,236.5c0,0-2.3-106-64.3-130.3c-19.7-7-88.6-54.4-96.1-95.6c0,0-0.6,74.7,60.8,117.6
			c0,0,16.8,9.3,27.2,14.5C428.7,148.5,470.4,179.8,490.1,236.5z"/>
		<path class="st1" d="M483.7,257.4c0,0-24.9-57.3-71.8-73.6c-44.6-15.1-52.7-23.7-59.7-30.7c0,0,1.2,35.9,49.2,53.3
			C448.9,223.8,458.2,225.5,483.7,257.4"/>
		<path class="st2" d="M300.1,383.1c0,0,85.7-34.8,126.3-64.3s95-65.5,106-155.8c0,0,0.6-20.9-1.2-29.5c-1.7-8.1-2.9-35.9,34.8-40
			c37.6-4.1,85.7,0,95.6,2.3c0,0-59.7-9.8-77-20.9s-51-16.2-74.7,8.1c-23.2,24.3-42.3,60.2-49.2,105.4c-7,45.8-8.1,56.2-47.5,104.3
			C374.2,341.9,315.1,380.2,300.1,383.1z"/>
		<text transform="matrix(1 0 0 1 33.146 347.4977)" class="st2 st3 st4">Sam</text>
		<text transform="matrix(1 0 0 1 490.2651 347.4977)" class="st2 st3 st4">Host</text>
	</g>
</g>
</svg>
